#N canvas 0 96 1280 624 12;
#X obj 67 163 loadbang;
#X msg 67 206 \; pd dsp 1;
#X obj 206 58 netreceive -u 9283;
#X obj 219 365 dac~;
#X obj 219 304 cycle~;
#X obj 206 96 print light;
#X floatatom 214 148 5 0 0 0 - - -;
#X obj 218 204 + 400;
#X floatatom 223 244 5 0 0 0 - - -;
#X obj 219 333 *~ 0.01;
#X connect 0 0 1 0;
#X connect 2 0 5 0;
#X connect 2 0 6 0;
#X connect 4 0 9 0;
#X connect 6 0 7 0;
#X connect 7 0 8 0;
#X connect 8 0 4 0;
#X connect 9 0 3 0;
